<svg xmlns="http://www.w3.org/2000/svg" enable-background="new 0 0 64 64" viewBox="0 0 64 64" id="University"><path d="M10.002 41.501h-4c-.553 0-1 .447-1 1v5c0 .553.447 1 1 1h4c.553 0 1-.447 1-1v-5C11.002 41.948 10.555 41.501 10.002 41.501zM9.002 46.501h-2v-3h2V46.501zM18.002 41.501h-4c-.553 0-1 .447-1 1v5c0 .553.447 1 1 1h4c.553 0 1-.447 1-1v-5C19.002 41.948 18.555 41.501 18.002 41.501zM17.002 46.501h-2v-3h2V46.501zM30.006 41.501h-4c-.553 0-1 .447-1 1v5c0 .553.447 1 1 1h4c.553 0 1-.447 1-1v-5C31.006 41.948 30.559 41.501 30.006 41.501zM29.006 46.501h-2v-3h2V46.501zM39.014 42.501c0-.553-.447-1-1-1h-4c-.553 0-1 .447-1 1v5c0 .553.447 1 1 1h4c.553 0 1-.447 1-1V42.501zM37.014 46.501h-2v-3h2V46.501zM46.002 48.501h4c.553 0 1-.447 1-1v-5c0-.553-.447-1-1-1h-4c-.553 0-1 .447-1 1v5C45.002 48.054 45.449 48.501 46.002 48.501zM47.002 43.501h2v3h-2V43.501zM54.002 48.501h4c.553 0 1-.447 1-1v-5c0-.553-.447-1-1-1h-4c-.553 0-1 .447-1 1v5C53.002 48.054 53.449 48.501 54.002 48.501zM55.002 43.501h2v3h-2V43.501zM10.002 50.51h-4c-.553 0-1 .447-1 1v5c0 .553.447 1 1 1h4c.553 0 1-.447 1-1v-5C11.002 50.957 10.555 50.51 10.002 50.51zM9.002 55.51h-2v-3h2V55.51zM18.002 50.51h-4c-.553 0-1 .447-1 1v5c0 .553.447 1 1 1h4c.553 0 1-.447 1-1v-5C19.002 50.957 18.555 50.51 18.002 50.51zM17.002 55.51h-2v-3h2V55.51zM46.002 57.51h4c.553 0 1-.447 1-1v-5c0-.553-.447-1-1-1h-4c-.553 0-1 .447-1 1v5C45.002 57.063 45.449 57.51 46.002 57.51zM47.002 52.51h2v3h-2V52.51zM54.002 57.51h4c.553 0 1-.447 1-1v-5c0-.553-.447-1-1-1h-4c-.553 0-1 .447-1 1v5C53.002 57.063 53.449 57.51 54.002 57.51zM55.002 52.51h2v3h-2V52.51z" fill="#64748b" class="color000000 svgShape"></path><path d="M63.977,37.382c-0.005-0.043,0.005-0.085-0.006-0.128l-0.998-4c-0.007-0.026-0.025-0.045-0.034-0.07
		c-0.021-0.066-0.053-0.125-0.088-0.185c-0.031-0.053-0.061-0.104-0.101-0.149c-0.044-0.052-0.095-0.092-0.148-0.134
		c-0.048-0.036-0.093-0.07-0.146-0.098c-0.059-0.031-0.121-0.05-0.187-0.068c-0.063-0.018-0.122-0.032-0.188-0.038
		c-0.027-0.002-0.051-0.016-0.079-0.016H50.041V28.5c0-0.553-0.447-1-1-1H46c-0.553,0-1,0.447-1,1v3.996h-6.003v-5.984
		c0-0.552-0.445-0.997-0.996-0.999V15.5c0.553,0,1-0.447,1-1v-3c0-0.553-0.447-1-1-1h-0.486L33,4.183V1.498c0-0.553-0.447-1-1-1
		s-1,0.447-1,1v2.685L26.485,10.5H26c-0.553,0-1,0.447-1,1v2.995c0,0.002-0.001,0.003-0.001,0.005c0,0.553,0.447,1,1,1v10.013
		c-0.551,0.002-0.996,0.447-0.996,0.999v5.984H19V28.5c0-0.553-0.447-1-1-1h-3.041c-0.553,0-1,0.447-1,1v3.996H1.998
		c-0.027,0-0.051,0.014-0.078,0.016c-0.066,0.006-0.128,0.021-0.191,0.039c-0.063,0.018-0.124,0.036-0.183,0.065
		c-0.055,0.028-0.101,0.064-0.149,0.102c-0.053,0.041-0.103,0.081-0.146,0.131C1.21,32.895,1.18,32.946,1.148,33
		c-0.034,0.059-0.065,0.117-0.087,0.183c-0.009,0.025-0.027,0.045-0.034,0.071l-0.998,4c-0.011,0.042-0.001,0.082-0.006,0.124
		C0.019,37.419,0,37.454,0,37.496c0,0.026,0.013,0.049,0.016,0.075c0.005,0.07,0.021,0.134,0.04,0.2
		c0.018,0.061,0.034,0.118,0.063,0.174c0.028,0.057,0.065,0.106,0.105,0.157c0.039,0.05,0.078,0.098,0.126,0.14
		s0.101,0.072,0.155,0.104c0.059,0.034,0.115,0.064,0.181,0.086c0.025,0.009,0.045,0.027,0.071,0.034
		c0.08,0.02,0.161,0.028,0.24,0.029c0.001,0,0.002,0,0.002,0v23.002c-0.553,0-1,0.447-1,1s0.447,1,1,1h24.979
		c0.007,0,0.013,0.004,0.02,0.004h12.008c0.007,0,0.013-0.004,0.02-0.004H63c0.553,0,1-0.447,1-1s-0.447-1-1-1V38.499
		c0.014,0,0.024-0.007,0.037-0.008c0.068-0.002,0.137-0.008,0.205-0.024c0.022-0.006,0.039-0.021,0.061-0.029
		c0.075-0.023,0.141-0.058,0.206-0.098c0.047-0.028,0.093-0.055,0.134-0.09c0.055-0.047,0.098-0.1,0.141-0.156
		c0.035-0.047,0.069-0.091,0.096-0.143c0.03-0.059,0.049-0.119,0.067-0.184s0.033-0.126,0.038-0.193
		C63.987,37.548,64,37.525,64,37.499C64,37.457,63.981,37.422,63.977,37.382z M26.998,61.498v-8.984H31v8.984H26.998z M33,61.498
		v-8.984h4.006v8.984H33z M38.006,50.514H25.998c-0.553,0-1,0.447-1,1v9.984h-1.997V37.98L32,30.778l9.001,7.202v23.518h-1.995
		v-9.984C39.006,50.961,38.559,50.514,38.006,50.514z M2.28,36.496l0.499-2h12.165c0.005,0,0.01,0.003,0.015,0.003H18
		c0.005,0,0.01-0.003,0.015-0.003h6.138l-2.499,2H2.28z M27.003,27.512h9.994v4.702l-4.372-3.498
		c-0.024-0.02-0.055-0.024-0.08-0.041c-0.058-0.038-0.116-0.067-0.179-0.092c-0.059-0.023-0.115-0.044-0.176-0.056
		c-0.064-0.013-0.127-0.016-0.192-0.016c-0.063,0-0.123,0.003-0.185,0.016c-0.063,0.012-0.121,0.032-0.182,0.057
		c-0.063,0.024-0.119,0.053-0.176,0.09c-0.026,0.018-0.057,0.022-0.081,0.042l-4.372,3.499V27.512z M42.353,36.499l-2.503-2.003
		h6.136c0.005,0,0.01,0.003,0.015,0.003h3.041c0.005,0,0.01-0.003,0.015-0.003h12.165l0.499,2.003H42.353z M47,29.5h1.041v2.996H47
		V29.5z M36.001,25.512h-8.002V15.5H31v1.185c-1.161,0.414-2,1.514-2,2.815v2c0,0.553,0.447,1,1,1h1c0,0.553,0.447,1,1,1
		s1-0.447,1-1h1c0.553,0,1-0.447,1-1v-2c0-1.302-0.839-2.401-2-2.815V15.5h3.001V25.512z M37.001,12.5v1H27v-1H37.001z M33,20.5h-2
		v-1c0-0.552,0.448-1,1-1s1,0.448,1,1V20.5z M32,6.223l3.058,4.277h-6.115L32,6.223z M15.959,29.5H17v2.996h-1.041V29.5z M3,38.496
		h18.001v23.002H3V38.496z M61,61.498H43.001V38.499H61V61.498z" fill="#64748b" class="color000000 svgShape"></path><path d="M35,36.497c0-1.653-1.345-2.998-2.998-2.998s-2.998,1.345-2.998,2.998s1.345,2.998,2.998,2.998S35,38.15,35,36.497z
		 M32.002,37.495c-0.551,0-0.998-0.447-0.998-0.998s0.447-0.998,0.998-0.998S33,35.946,33,36.497S32.553,37.495,32.002,37.495z" fill="#64748b" class="color000000 svgShape"></path></svg>