<svg xmlns="http://www.w3.org/2000/svg" viewBox="0 0 32 32" id="Work"><path d="M7 2a3 3 0 0 0-3 3 3 3 0 0 0 3 3 3 3 0 0 0 3-3 3 3 0 0 0-3-3zm17.031 4a.503.503 0 0 0-.478.277l-3 5.998a.5.5 0 0 0 .894.45l1.053-2.108V14H22a.5.5 0 1 0 0 1h2a.5.5 0 1 0 0-1h-.5V8.646c0-.007-.004-.012-.004-.019l.951-1.904A.499.499 0 0 0 24.031 6zM6.5 8.672a3 3 0 0 0-3 3V19a3 3 0 0 0 3 3h5v6.5a1.5 1.5 0 0 0 3 0v-8A1.5 1.5 0 0 0 13 19H9.5v-5.24l1.734 1.03c.232.137.496.21.766.21h4c.229 0 .443-.055.637-.146.09.09.217.146.355.146H19a.5.5 0 1 0 0-1h-1.592c.056-.157.092-.324.092-.5A1.5 1.5 0 0 0 16 12h-3.588L8.943 9.94A2.991 2.991 0 0 0 6.5 8.671zm-4.998 5.32a1 1 0 0 0-1 1L.5 24a1 1 0 0 0 .61.92l.001.002c.12.05.25.078.389.078h3v2.686l-1.82 1.412a.5.5 0 1 0 .613.789L4.5 28.95v.541a.5.5 0 1 0 1 0v-.52l1.18.915a.502.502 0 0 0 .7-.088.5.5 0 0 0-.087-.701L5.5 27.707V25h2.986a1 1 0 1 0 0-2H2.5l.002-8.008a1 1 0 0 0-1-1zM13.5 16a1 1 0 1 0 0 2h2v11a1 1 0 1 0 2 0V18h9v11a1 1 0 1 0 2 0V18h2a1 1 0 1 0 0-2h-17z" fill="#64748b" class="color000000 svgShape"></path></svg>